<?xml version="1.0" standalone="no"?>
<!DOCTYPE svg PUBLIC "-//W3C//DTD SVG 20010904//EN"
 "http://www.w3.org/TR/2001/REC-SVG-20010904/DTD/svg10.dtd">
<svg version="1.0" xmlns="http://www.w3.org/2000/svg"
 width="190.000000pt" height="190.000000pt" viewBox="0 0 190.000000 190.000000"
 preserveAspectRatio="xMidYMid meet">
<metadata>
Created by potrace 1.11, written by Peter Selinger 2001-2013
</metadata>
<g transform="translate(0.000000,190.000000) scale(0.100000,-0.100000)"
fill="#000000" stroke="none">
<path d="M218 1872 l-96 -3 1 -927 2 -927 130 0 130 0 2 926 2 927 -37 3 c-20
2 -80 3 -134 1z"/>
<path d="M1058 1735 c-10 -8 -13 -184 -13 -857 1 -466 4 -851 9 -855 8 -8 220
-14 247 -7 14 4 16 88 15 859 0 756 -2 855 -16 861 -22 10 -43 10 -57 0 -7 -5
-13 -5 -13 0 0 12 -157 11 -172 -1z"/>
<path d="M592 1405 c-11 -18 -8 -1376 3 -1383 17 -12 245 -10 252 2 8 13 7
1375 -1 1383 -11 11 -247 9 -254 -2z"/>
<path d="M1516 1058 c-3 -13 -4 -252 -3 -533 l2 -510 127 -1 c108 -1 128 1
133 15 5 13 7 129 4 326 -1 22 0 45 0 50 2 14 0 459 -2 575 l-2 95 -127 3
c-126 3 -128 2 -132 -20z"/>
</g>
</svg>
